<svg id="Layer_1" data-name="Layer 1" xmlns="http://www.w3.org/2000/svg" width="569.03" height="723.86" viewBox="0 0 569.03 723.86">
  <defs>
    <style>
      .cls-1 {
        fill: #f2b705;
      }

      .cls-2 {
        fill: #53cbc8;
      }
    </style>
  </defs>
  <title>moonriver-logo-movr_freelogovectors.net</title>
  <g>
    <path class="cls-1" d="M369.93,13.07C220.46,13.11,99.3,134.26,99.26,283.73a276.58,276.58,0,0,0,4.79,51l35-23.94c61.47-42.17,161.17-42.17,222.64,0l36.66,25.16,19.94,13.65c55.39,37.95,145.16,37.95,200.48,0l16.29-11.15c30-146.52-64.38-289.64-210.89-319.68a271,271,0,0,0-54.12-5.52Z" transform="translate(-90.48 -13.07)"/>
    <path class="cls-2" d="M522.09,446.33a194.44,194.44,0,0,1-109.14-31l-56.53-38.74a195.57,195.57,0,0,0-204.55,0l-36.53,25A15.89,15.89,0,0,1,97.4,375.36h0l36.53-25a227.79,227.79,0,0,1,240.43,0l56.53,38.74a174.38,174.38,0,0,0,182.32,0l21.45-14.65a15.89,15.89,0,0,1,17.94,26.23l-21.45,14.65A195.21,195.21,0,0,1,522.09,446.33Z" transform="translate(-90.48 -13.07)"/>
    <path class="cls-2" d="M253,560V407.09a62.21,62.21,0,0,1,.36-9.65,17.28,17.28,0,0,1,17.15-15.29,16.72,16.72,0,0,1,16.15,15.29,93.11,93.11,0,0,1,.57,16v305A17.86,17.86,0,0,1,270,736.92h-.3a17.58,17.58,0,0,1-16.57-18.53q0-.42.06-.84V615.86Z" transform="translate(-90.48 -13.07)"/>
    <path class="cls-2" d="M220.84,483.07v76c0,13-7.15,21.44-16.8,21.44s-17.3-9.08-17.37-21.44V407c0-13.3,7.79-22.3,17.87-21.44s16.08,8.5,16.15,21.87C220.84,432.39,220.84,457.69,220.84,483.07Z" transform="translate(-90.48 -13.07)"/>
    <path class="cls-2" d="M319.54,482.92V429.6c0-12.36,6.57-20.37,16.37-20.37a18.37,18.37,0,0,1,17.48,19.21c0,.25,0,.49-.05.74q.51,54.45,0,109c0,12.36-7.14,19.87-17.36,19.73s-16.44-7.72-16.51-20.37V483Z" transform="translate(-90.48 -13.07)"/>
    <path class="cls-2" d="M120.42,493.93V440.54c0-12.44,6.57-20.44,16.37-20.44a18.36,18.36,0,0,1,17.48,19.21c0,.24,0,.49-.05.73q.51,54.52,0,109.07c0,12.36-7.14,19.79-17.29,19.72s-16.51-7.72-16.58-20.44V493.93Z" transform="translate(-90.48 -13.07)"/>
    <path class="cls-2" d="M402.52,448.62h0a16.79,16.79,0,0,1,16.79,16.79v29a16.79,16.79,0,0,1-16.79,16.79h0a16.79,16.79,0,0,1-16.8-16.79v-29A16.8,16.8,0,0,1,402.52,448.62Z" transform="translate(-90.48 -13.07)"/>
    <path class="cls-2" d="M469,474.06h0a16.8,16.8,0,0,1,16.79,16.8V653.74A16.79,16.79,0,0,1,469,670.53h0a16.79,16.79,0,0,1-16.8-16.79V490.86A16.8,16.8,0,0,1,469,474.06Z" transform="translate(-90.48 -13.07)"/>
    <path class="cls-2" d="M535,480.35h0a16.8,16.8,0,0,1,16.8,16.8V635.59A16.8,16.8,0,0,1,535,652.38h0a16.79,16.79,0,0,1-16.79-16.79V497.15A16.8,16.8,0,0,1,535,480.35Z" transform="translate(-90.48 -13.07)"/>
    <path class="cls-2" d="M602,464.55h0a16.8,16.8,0,0,1,16.8,16.8V541A16.8,16.8,0,0,1,602,557.82h0A16.79,16.79,0,0,1,585.2,541V481.35A16.8,16.8,0,0,1,602,464.55Z" transform="translate(-90.48 -13.07)"/>
  </g>
</svg>
